<svg xmlns="http://www.w3.org/2000/svg" xmlns:xlink="http://www.w3.org/1999/xlink" width="500" zoomAndPan="magnify" viewBox="0 0 375 374.999991" height="500" preserveAspectRatio="xMidYMid meet" version="1.0"><defs><clipPath id="ad36ce6668"><path d="M 0 43.828125 L 375 43.828125 L 375 331 L 0 331 Z M 0 43.828125 " clip-rule="nonzero"/></clipPath></defs><g clip-path="url(#ad36ce6668)"><path fill="#ff3131" d="M 3.921875 218.765625 C 10.382812 195.238281 24.085938 177.097656 46.285156 166.320312 C 53.535156 162.804688 61.589844 160.953125 69.273438 158.324219 L 118.433594 150.964844 L 125.621094 94.128906 L 125.628906 94.128906 C 127.402344 77.363281 129.199219 60.59375 131 43.828125 L 189.597656 43.828125 C 217.363281 81.4375 245.085938 119.085938 272.800781 156.742188 C 286.636719 175.523438 300.457031 194.324219 314.304688 213.105469 C 314.765625 213.730469 315.371094 214.253906 316.621094 215.59375 C 317.378906 209.175781 318.074219 203.761719 318.652344 198.335938 C 320.34375 182.328125 321.96875 166.3125 323.660156 150.296875 C 325.378906 134.054688 327.148438 117.820312 328.875 101.578125 C 330.585938 85.453125 332.273438 69.316406 333.964844 53.191406 C 334.289062 50.066406 334.617188 46.945312 334.941406 43.828125 L 374.992188 43.828125 C 373.320312 59.148438 371.675781 74.480469 370.019531 89.808594 C 367.96875 108.835938 365.933594 127.863281 363.847656 146.878906 C 362.128906 162.652344 360.332031 178.414062 358.59375 194.1875 C 356.90625 209.609375 355.242188 225.039062 353.570312 240.46875 C 352.628906 249.089844 351.726562 257.722656 350.730469 266.335938 L 301.769531 266.335938 C 289.78125 250.230469 277.878906 234.066406 265.949219 217.925781 C 233.707031 174.292969 201.457031 130.664062 169.207031 87.042969 C 168.546875 86.148438 167.847656 85.296875 167.171875 84.421875 L 166.175781 84.621094 L 165.824219 87.875 L 155.03125 193.546875 L 153 193.320312 C 153 193.328125 153.007812 193.328125 153.007812 193.328125 C 146.328125 193.328125 140.390625 193.320312 134.453125 193.328125 C 119.265625 193.355469 104.089844 193.484375 88.914062 193.402344 C 65.332031 193.285156 45.472656 209.273438 40.980469 232.695312 C 36.460938 256.238281 48.917969 281.773438 74.007812 288.90625 C 79.765625 290.542969 85.921875 291.390625 91.914062 291.492188 C 112.34375 291.796875 132.777344 291.5625 153.214844 291.652344 C 156.453125 291.664062 157.878906 290.902344 158.207031 287.214844 C 159.363281 274.335938 161.0625 261.5 162.433594 248.636719 C 163.382812 239.71875 164.0625 230.757812 165.011719 221.828125 C 166.367188 209.085938 167.886719 196.347656 169.277344 183.605469 C 170.199219 175.144531 170.996094 166.664062 171.882812 158.207031 C 172.867188 148.8125 173.898438 139.441406 174.898438 130.050781 C 175.171875 127.535156 175.386719 125.015625 175.695312 121.761719 C 176.96875 123.414062 177.863281 124.554688 178.742188 125.710938 C 188.601562 138.726562 198.417969 151.769531 208.351562 164.730469 C 210.132812 167.0625 210.484375 169.394531 210.140625 172.234375 C 208.632812 184.84375 207.304688 197.480469 205.902344 210.113281 C 204.511719 222.625 203.074219 235.125 201.734375 247.636719 C 200.734375 257.027344 199.902344 266.4375 198.914062 275.835938 C 198.113281 283.484375 197.179688 291.113281 196.320312 298.757812 C 195.265625 308.257812 194.152344 317.75 193.195312 327.265625 C 192.96875 329.582031 192.433594 330.875 189.714844 330.863281 C 154.453125 330.738281 119.183594 331.171875 83.933594 330.464844 C 61.039062 330.015625 40.917969 321.472656 24.890625 304.742188 C 12.617188 291.933594 5.394531 276.488281 2.414062 259.007812 C 0.105469 245.464844 0.296875 231.953125 3.921875 218.765625 Z M 3.921875 218.765625 " fill-opacity="1" fill-rule="nonzero"/></g></svg>